<?xml version="1.0" encoding="utf-8"?>
<!-- Generator: Adobe Illustrator 27.2.0, SVG Export Plug-In . SVG Version: 6.00 Build 0)  -->
<svg version="1.1" id="Layer_1" xmlns="http://www.w3.org/2000/svg" xmlns:xlink="http://www.w3.org/1999/xlink" x="0px" y="0px"
	 viewBox="0 0 2385 968" style="enable-background:new 0 0 2385 968;" xml:space="preserve">
<style type="text/css">
	.st0{fill:#E8E8E8;}
	.st1{fill:#EB3F21;}
	.st2{fill:#191919;}
	.st3{fill:#1D3A54;}
	.st4{fill:#E1B14B;}
	.st5{opacity:5.000000e-02;}
	.st6{fill:#FFFFFF;}
	.st7{fill:#3A3B3A;}
	.st8{fill:#FEFEFE;}
	.st9{fill:#E1B251;}
	.st10{fill:#1F3C55;}
	.st11{fill:#203C56;}
	.st12{fill:#1E3B55;}
	.st13{fill:#EA4022;}
	.st14{fill:#D94E32;}
	.st15{fill:#E8E8E1;}
	.st16{fill:#233A52;}
	.st17{fill:#162C3F;}
	.st18{fill:#D93A1E;}
	.st19{fill:#1C355E;}
	.st20{fill:#E43D30;}
	.st21{fill:#CAB44B;}
	.st22{fill:#DCE3EB;}
</style>
<g>
	<path class="st3" d="M387.1,340.8h-29.9c-2.8,0-4.8,2.3-4.8,4.8v63.3h-71.9v-63.3c0-2.5-2-4.8-4.8-4.8h-29.9
		c-2.5,0-4.8,2.3-4.8,4.8v166.3c0,2.5,2.3,4.8,4.8,4.8h29.9c2.8,0,4.8-2.3,4.8-4.8v-66.1h71.9v66.1c0,2.5,2,4.8,4.8,4.8h29.9
		c2.5,0,4.8-2.3,4.8-4.8V345.5C391.9,343,389.6,340.8,387.1,340.8z"/>
	<path class="st3" d="M512.5,338.3c-50.2,0-90.2,40.4-90.2,90.7c0,50.2,39.9,90.2,90.2,90.2s90.4-39.9,90.4-90.2
		C602.9,378.7,562.7,338.3,512.5,338.3z M512.5,478.9c-27.4,0-50-22.6-50-50c0-27.6,22.6-50.5,50-50.5c27.6,0,50.2,22.9,50.2,50.5
		C562.7,456.3,540.1,478.9,512.5,478.9z"/>
	<path class="st3" d="M689.6,409.9c-19.8-8-27.4-15.1-27.4-24.4c0-6.8,6.8-12.8,15.8-12.8c15.3,0,33.7,13.8,35.9,15.1
		c2.3,1.8,6.8-0.5,8.5-3.3l12.8-19.3c1-1.8,1.5-6.3-1.5-8c-7.5-5.5-27.6-18.8-53.8-18.8c-38.7,0-58,25.1-58,50
		c0,30.1,27.1,47,48.7,55.5c17.1,6.8,25.9,14.8,25.9,25.4c0,8.8-7.3,15.1-17.3,15.1c-16.6,0-34.7-13.3-35.7-13.8
		c-1.8-1.3-6.5-1.8-8.5,1.5l-11.8,20.9c-2,3.5-1.3,4.5,1.3,7c5.8,5.8,23.9,19.3,56.5,19.3c36.9,0,59.3-26.1,59.3-52
		C740.3,433,709.2,417.6,689.6,409.9z"/>
	<path class="st3" d="M879.8,340.8h-104c-2.8,0-4.8,2.3-4.8,4.8v166.3c0,2.5,2,4.8,4.8,4.8h104c2.8,0,4.8-2.3,4.8-4.8v-27.4
		c0-2.5-2-4.8-4.8-4.8h-69.6v-33.9h57.3c2.5,0,4.8-2,4.8-4.8v-27.4c0-2.5-2.3-4.8-4.8-4.8h-57.3v-31.2h69.6c2.8,0,4.8-2.3,4.8-4.8
		v-27.4C884.5,343,882.5,340.8,879.8,340.8z"/>
	<path class="st3" d="M1013.4,435l42.5,81.4c0.8,1.5,2.8,2.8,4.3,2.8h4.5c1.3,0,3.5-1.3,4.3-2.8l42.2-81.4h0.5l11.3,77.6
		c0.3,2,2.5,4,4.8,4h29.6c3,0,5.3-2.3,4.8-5.5l-28.4-168.8c-0.3-2.3-2.5-4-4.5-4h-4c-1.3,0-3.5,1-4.3,2.5l-58.3,108.5h-0.5
		l-58.3-108.5c-0.8-1.5-3-2.5-4.3-2.5h-4c-2,0-4.3,1.8-4.5,4l-28.4,168.8c-0.5,3.3,1.8,5.5,4.8,5.5h29.6c2.5,0,4.5-2,4.8-4
		l11.1-77.6H1013.4z"/>
	<path class="st3" d="M1538.7,340.8h-30.1c-2.8,0-4.8,2.3-4.8,4.8v89.2h-0.3l-100.2-96.5h-6.3c-2.5,0-4.8,2-4.8,4.5l0.3,169.1
		c0,2.5,2.3,4.8,4.8,4.8h29.9c2.8,0,4.8-2.3,4.8-4.8v-93.7h0.3l99.2,99.7c0.5,0.5,2.5,1.3,3.3,1.3h4c2.5,0,4.8-2,4.8-4.5V345.5
		C1543.5,343,1541.2,340.8,1538.7,340.8z"/>
	<path class="st3" d="M1643,409.9c-19.9-8-27.4-15.1-27.4-24.4c0-6.8,6.8-12.8,15.8-12.8c15.3,0,33.7,13.8,35.9,15.1
		c2.3,1.8,6.8-0.5,8.5-3.3l12.8-19.3c1-1.8,1.5-6.3-1.5-8c-7.5-5.5-27.6-18.8-53.8-18.8c-38.7,0-58,25.1-58,50
		c0,30.1,27.1,47,48.7,55.5c17.1,6.8,25.9,14.8,25.9,25.4c0,8.8-7.3,15.1-17.3,15.1c-16.6,0-34.7-13.3-35.7-13.8
		c-1.8-1.3-6.5-1.8-8.5,1.5l-11.8,20.9c-2,3.5-1.3,4.5,1.3,7c5.8,5.8,23.9,19.3,56.5,19.3c36.9,0,59.3-26.1,59.3-52
		C1693.7,433,1662.6,417.6,1643,409.9z"/>
	<path class="st3" d="M1822.6,340.8h-111.5c-2.8,0-4.8,2.3-4.8,4.8v27.4c0,2.5,2,4.8,4.8,4.8h35.9v134.2c0,2.5,2.3,4.8,4.8,4.8h30.1
		c2.5,0,4.8-2.3,4.8-4.8V377.7h35.9c2.8,0,4.8-2.3,4.8-4.8v-27.4C1827.4,343,1825.4,340.8,1822.6,340.8z"/>
	<path class="st3" d="M1961.3,340.8h-104c-2.8,0-4.8,2.3-4.8,4.8v166.3c0,2.5,2,4.8,4.8,4.8h104c2.8,0,4.8-2.3,4.8-4.8v-27.4
		c0-2.5-2-4.8-4.8-4.8h-69.6v-33.9h57.3c2.5,0,4.8-2,4.8-4.8v-27.4c0-2.5-2.3-4.8-4.8-4.8h-57.3v-31.2h69.6c2.8,0,4.8-2.3,4.8-4.8
		v-27.4C1966.1,343,1964,340.8,1961.3,340.8z"/>
	<path class="st3" d="M2097.2,445.5c21.9-8.8,37.2-27.4,37.2-50.5c0-29.9-24.6-54.3-54.8-54.3h-75.1c-2.8,0-4.8,2.3-4.8,4.8v166.3
		c0,2.5,2,4.8,4.8,4.8h29.9c2.5,0,4.8-2.3,4.8-4.8v-64.1h17.3l33.4,66.6c0.5,1,2,2.3,4,2.3h33.4c4.3,0,6-4,4.3-7.3L2097.2,445.5z
		 M2076.3,415.9h-37.2v-39.2h37.2c10.3,0,19.1,8.5,19.1,19.1C2095.4,406.3,2086.6,415.9,2076.3,415.9z"/>
	<g>
		<path class="st4" d="M1263.1,413.4c-5-1.6-11.1-3.8-16.7-7c-8,2.1-16.2,9.9-16.2,9.9S1247.8,412.3,1263.1,413.4z"/>
		<path class="st1" d="M1233.5,358.3C1233.5,358.3,1233.5,358.3,1233.5,358.3C1233.5,358.3,1233.5,358.3,1233.5,358.3
			C1233.5,358.3,1233.5,358.3,1233.5,358.3z"/>
		<path class="st1" d="M1362.6,433.7c0-13.1-2.9-25.4-8.1-36.5c-0.1-0.2-0.1-0.4-0.2-0.6c0,0-5.3-11.9-8.2-25.8c0,0,0-0.1,0-0.1
			c-0.3-2.3-0.6-4.5-0.9-6.8c-0.9-8.6-1-17.2-0.3-25.8c0.3-3.7,0.7-7.4,1.3-11c0.3-1.8,2.2-10.9,2.2-10.9
			c-8.6,10.3-15.7,21.9-21,34.4c0,0,0,0.1-0.1,0.1c-1.3,3.1-2.5,6.2-3.6,9.4c-0.1,0.4-0.3,0.8-0.4,1.2c-0.5,1.5-1,3-1.4,4.5
			c0,0,0,0,0,0v0c0-0.8,0-1.7,0-2.5c0-0.9,0-1.9,0-2.8c-0.1-4.5-0.3-9-0.8-13.4c-3.4-32.7-18.1-67.2-41.8-90.8
			c-1.9-1.9-3.8-3.6-6-5.1c-0.9-0.6-2.9-2-5-3.4c-0.2-0.3-0.3-0.4-0.3-0.4c0,0.1,0,0.2,0.1,0.2c-0.1,0-0.1-0.1-0.2-0.1
			c0.1,0.4,0.3,0.8,0.5,1.4c0.7,2.5,1.2,5.1,1.7,7.8c0.1,0.8,0.3,1.6,0.4,2.3c4.7,30.3-3.7,61.6-23.2,85.3
			c-3.2,3.8-6.7,7.6-10.4,10.9c-1,0.9-2.4,2.1-3.6,3.1c1.2-0.7,2-1,2.4-1.1c-0.8,0.3-1.6,0.6-2.5,1.1c-0.1,0-0.4,0.2-0.5,0.3
			c0,0,0.2-0.1,0.5-0.3c0.2-0.1-4.1-6.4-4.5-7c-4.6-6.1-10.3-10.9-16.6-15.2c-3.8-2.6-7.5-5.3-11.5-7.4c-0.4-0.2-2.7-1-2.8-1.4
			c1.3,4.3,2.3,8.8,3.1,13.3c1.1,6.4,1.7,13.1,1.7,19.8c0,2.7-0.1,5.3-0.3,8c-0.2,2.5-0.4,5-0.8,7.4c0,0.3-0.1,0.7-0.1,1
			c-1.2,8.8-3.5,17.2-6.6,25.2c-0.1,0.3-0.2,0.6-0.4,0.9c-1.3,3.5-2.4,7.1-3.3,10.7c0,0,0,0.1,0,0.1c-0.1,0.6-0.3,1.3-0.4,1.9
			c-0.1,0.3-0.1,0.6-0.2,0.9c0,0,0,0.1,0,0.1c0,0,0,0,0-0.1c0,0.1,0,0.2-0.1,0.3c0-0.1,0-0.1,0-0.2c0,0.2-0.1,0.4-0.1,0.6
			c-0.1,0.6-0.2,1.1-0.3,1.7c0,0,0,0.1,0,0.1c0,0,0-0.1,0-0.1c-0.1,0.4-0.1,0.7-0.2,1.1c-0.6,3.7-0.9,7.5-0.9,11.3
			c0,0.2,0,0.4,0,0.7v0.4v0.1c0,0.4,0,0.8,0,1.2c0,0.1,0,0.3,0,0.4c0,0,0,0,0,0.1c0,0.4,0,0.8,0,1.2c0,0,0,0.1,0,0.1
			c0,0.4,0,0.8,0.1,1.3c0.2,6.4,1.1,12.6,2.7,18.6c0.1,0.5,0.2,0.9,0.3,1.2c0-0.1,0-0.1,0-0.2c1.1,4.2,2.6,8.4,4.4,12.3
			c0.3,0.7,0.6,1.4,0.9,2.1c0-0.1,0-0.1,0-0.2c0.1-4.4,1.8-20.8,3.1-24.9l0-0.1c1.4-6.2,3.8-12.3,7.2-18c0.4-0.7,0.8-1.4,1.3-2.1
			c4.3-6.7,9.6-12.3,15.6-16.9c-2-2.6-9.5-10.4-12.1-12.5c7.3,3.9,20.9,7.4,34.4,1.7l0,0c0.3,0.2,0.7,0.4,1,0.6
			c3.6,2.1,7.3,3.8,11.1,5c2.8,0.9,5.6,1.6,8.5,2.1c9.3,1.6,18.7,0.9,27.5-1.8c1.2-0.4,2.4-0.8,3.6-1.3c6.8-2.6,13.2-6.5,18.7-11.6
			c2.1-2,4.1-4.1,5.9-6.4c-0.1,8.2-1.7,16.4-5,24.3c-1.1,2.7-2.4,5.3-3.9,7.9c-0.4,0.7-0.8,1.4-1.3,2.1c-0.5,0.8-1.1,1.7-1.7,2.5
			c-1.5-0.4-3.1-0.9-5.4-1.4c-7-1.4-14.2-1.1-21.1,0.6c-2,0.5-4,1.2-5.9,1.9c-8.2,3.3-15.6,8.9-21,16.5c4.6,1.8,9.4,2.8,14.2,2.9
			c5.2,0.2,10.3-0.5,15.2-2.1c1.4-0.4,2.7-1,4.1-1.5c3.5-1.5,6.8-3.5,9.8-5.9c0.4-0.2,0.7-0.5,1.1-0.8c0,0.1-0.1,0.1-0.1,0.2
			c-2.1,2.5-4,5.1-5.8,7.9c-0.3,0.5-0.6,0.9-0.8,1.4c-1.8,3-3.3,6.1-4.5,9.3c0,0-0.1,0-0.1,0c0,0-0.1,0-0.1,0
			c-13.4-2.5-27.6,3.5-34.9,16c-1.1,1.9-2,3.8-2.7,5.8c-0.4-1.8-1-3.6-1.8-5.3c-0.4-0.9-0.9-1.8-1.4-2.7c-0.3-0.5-0.6-1-0.9-1.4
			c-0.8,0.9-11.4,15.5-4.3,34.1c1.2,3,2.7,5.9,4.6,8.6c1.6,2.3,3.6,4.4,5.7,6.2c1.9,1.6,4,3,6.1,4.2c1.9,1,3.8,1.9,5.9,2.6
			c0,0,0.1,0,0.1,0c4.7,1.7,9.8,2.2,14.8,2c1.7-0.1,3.3-0.2,5-0.3c3.5-0.3,6.9-0.9,10.3-1.7c3.3-0.8,6.6-1.7,9.8-2.9
			c3.2-1.1,6.3-2.5,9.3-4c3-1.5,5.9-3.2,8.6-5.1c2.8-1.9,5.4-3.9,7.9-6c2.5-2.2,4.9-4.5,7.2-6.9c2.2-2.5,4.3-5,6.3-7.8
			c1.6-2.2,3-4.4,4.4-6.8c0,0,0,0,0,0c0.3-0.5,0.6-1,0.9-1.5c0,0,0-0.1,0.1-0.1c0.3-0.5,0.5-1,0.8-1.5c0-0.1,0.1-0.1,0.1-0.2
			c0.3-0.5,0.5-1,0.7-1.5c0-0.1,0.1-0.1,0.1-0.2c0.2-0.5,0.5-1,0.7-1.4c0-0.1,0.1-0.2,0.1-0.3c0.2-0.5,0.4-0.9,0.6-1.4
			c0.1-0.1,0.1-0.2,0.2-0.4c0.2-0.4,0.4-0.9,0.6-1.3c0.1-0.1,0.1-0.3,0.2-0.4c0.2-0.4,0.3-0.9,0.5-1.3c0.1-0.2,0.1-0.3,0.2-0.5
			c0.2-0.4,0.3-0.8,0.5-1.2c0.1-0.2,0.1-0.4,0.2-0.6c0.1-0.4,0.3-0.8,0.4-1.2c0.1-0.2,0.1-0.4,0.2-0.6c0.1-0.4,0.2-0.7,0.4-1.1
			c0.1-0.2,0.1-0.5,0.2-0.7c0.1-0.4,0.2-0.7,0.3-1.1c0.1-0.2,0.1-0.5,0.2-0.7c0.1-0.4,0.2-0.7,0.3-1.1c0.1-0.3,0.1-0.5,0.2-0.8
			c0.1-0.3,0.2-0.7,0.3-1c0.1-0.3,0.1-0.6,0.2-0.9c0.1-0.3,0.1-0.6,0.2-1c0.1-0.3,0.1-0.6,0.2-0.9c0.1-0.3,0.1-0.6,0.2-0.9
			c0.1-0.4,0.2-0.8,0.2-1.3c0-0.2,0.1-0.4,0.1-0.6c0.1-0.6,0.2-1.2,0.3-1.8c0,0,0-0.1,0-0.1c0-0.1,0-0.2,0-0.3
			c0.1-0.4,0.1-0.8,0.2-1.2c0-0.2,0.1-0.4,0.1-0.6c0,0,0,0,0-0.1c0,0,0-0.1,0-0.1c0-0.3,0.1-0.6,0.1-0.9c0.1-0.6,0.1-1.1,0.2-1.7
			c0.1-0.6,0.1-1.2,0.1-1.9c0-0.4,0-0.8,0.1-1.2c0,0,0-0.1,0-0.1c0-0.4,0-0.8,0-1.2c0,0,0-0.1,0-0.1c0,0,0,0.1,0,0.1
			c0,0,0-0.1,0-0.1C1362.5,437.8,1362.6,435.8,1362.6,433.7z M1349.2,385.4c-0.3-1-0.5-1.8-0.6-2.3c-0.5-2.1-1-4.2-1.4-6.3
			c-0.1-0.3-0.1-0.6-0.2-0.9C1347.6,379.1,1348.3,382.3,1349.2,385.4z M1362.4,439.8C1362.4,439.8,1362.4,439.8,1362.4,439.8
			C1362.4,439.8,1362.4,439.7,1362.4,439.8C1362.4,439.8,1362.4,439.8,1362.4,439.8z"/>
	</g>
	<g>
		<path class="st4" d="M868.9,633.8c12.1,1.5,20.3,6.6,27.7,14.5c1,1.1,0.8,2.5-0.3,3.3c-2,1.6-3.9,3.2-5.9,4.7c-1,1-2.1,0.8-3-0.4
			c-5.1-5.5-12.4-9.6-19.8-10.5c-17.1-2.1-32,10.3-34.3,26.9c-2.3,16.6,9.1,32.6,26.7,34.8c9,1.1,15.7-1.6,22.1-5.3
			c1.2-0.7,2.3-0.5,3,0.2c1.7,2,3.3,4,5,6c0.9,0.9,0.5,2.5-0.5,3.2c-9.3,6.9-20.3,9.3-31.3,8c-24.7-3.1-41.9-24.8-38.4-48.5
			C823.2,647.1,845.1,630.8,868.9,633.8z"/>
		<path class="st4" d="M975.5,644.9c23.9,2,41.8,22.5,40.3,46.4c-1.5,23.9-22.6,41.6-47.5,39.6c-24.8-2.1-42.6-23.1-40.1-46.9
			C930.6,660.2,951.6,642.9,975.5,644.9z M969.3,719c17.7,1.5,33.1-11.4,34.3-28.5c1.2-17-11.9-32.2-29.1-33.6
			c-17.1-1.4-32.5,11.4-34.1,28.3C938.7,702.3,951.7,717.5,969.3,719z"/>
		<path class="st4" d="M1068.8,652.8c0.3-0.9,1.3-1.7,2.2-1.7c0.6,0,1.3,0.1,1.9,0.1c0.7,0,1.8,0.7,2,1.4
			c7.5,20.8,15.1,41.5,22.9,62.2c0.2,0,0.3,0,0.5,0c9.2-20.1,18.3-40.2,27.1-60.4c0.3-0.7,1.2-1.3,2.1-1.3c0.6,0,1.3,0,1.9,0
			c1,0,1.9,0.9,2.1,1.8c4.3,26.9,8.8,53.9,13.4,80.8c0.3,1.7-0.5,2.7-2.3,2.7c-2.7,0-5.4-0.1-8.1-0.2c-1.1,0-2.1-0.9-2.3-1.7
			c-2.7-17.9-5.3-35.8-7.8-53.8c-0.1,0-0.4,0-0.4,0c-7.8,18.2-15.7,36.3-23.7,54.4c-0.3,0.7-1,1.3-2.2,1.2c-0.7,0-1.5-0.1-2.2-0.1
			c-1,0-1.8-0.7-2.1-1.4c-6.8-18.6-13.5-37.3-20-56c-0.1,0-0.4,0-0.5,0c-3.7,17.7-7.5,35.4-11.3,53.1c-0.2,0.8-1.3,1.6-2.3,1.6
			c-2.7-0.1-5.4-0.3-8.1-0.4c-1.7-0.1-2.5-1.2-2.2-2.9C1056.2,706,1062.6,679.4,1068.8,652.8z"/>
		<path class="st4" d="M1188.1,657.4c0-1.2,1-2.3,2.3-2.3c9.1,0,18.3,0,27.4-0.1c14.8-0.1,27.1,11.6,27.5,26.1
			c0.3,14.9-11.8,27.2-26.8,27.4c-5.9,0.1-11.9,0.1-17.8,0.1c0,9.4,0.1,18.8,0.1,28.2c0,1.2-1.1,2.3-2.3,2.3c-2.7,0-5.4,0-8.1,0
			c-1.4,0-2.4-1.1-2.4-2.3C1188,710.3,1188.1,683.8,1188.1,657.4z M1217.5,696.7c8.4-0.1,15.4-6.9,15.3-15.5
			c-0.1-8.1-7.2-14.3-15.6-14.2c-5.6,0.1-11.1,0.1-16.7,0.1c0,9.9,0.1,19.8,0.1,29.7C1206.2,696.8,1211.9,696.8,1217.5,696.7z"/>
		<path class="st4" d="M1270.5,734.7c11.9-27.2,23.4-54.6,34.5-82c0.3-0.7,1.4-1.4,2-1.4c0.4,0,0.8,0,1.2-0.1c0.6,0,1.7,0.5,2.1,1.2
			c13.4,26.3,27.3,52.5,41.4,78.6c0.8,1.5-0.1,3.1-1.9,3.2c-2.6,0.2-5.2,0.3-7.8,0.5c-1.5,0.1-2.4-0.6-3-1.6
			c-2.9-5.3-5.7-10.6-8.5-16c-13.4,0.7-26.8,1.3-40.3,1.8c-2.3,5.6-4.7,11.1-6.9,16.7c-0.3,0.9-1.3,1.8-2.8,1.9
			c-2.6,0.1-5.2,0.2-7.8,0.2C1270.9,737.8,1269.8,736.3,1270.5,734.7z M1325.3,707.1c-5.6-10.7-11.1-21.4-16.6-32.1
			c-0.2,0-0.4,0-0.6,0c-4.4,11.2-8.9,22.3-13.5,33.4C1304.9,708.1,1315.1,707.6,1325.3,707.1z"/>
		<path class="st4" d="M1382.9,649c-0.1-1.2,0.9-2.2,2.1-2.3c1-0.1,2-0.2,3-0.2c18.9,18.7,38.1,37.1,57.8,55.4c0,0,0.1,0,0.1,0
			c-1.8-18.8-3.6-37.6-5.4-56.4c-0.1-1.2,0.7-2.4,2.1-2.5c2.6-0.2,5.1-0.5,7.7-0.8c1.2-0.1,2.4,0.8,2.5,2
			c2.7,26.7,5.4,53.5,8.1,80.2c0.1,1.2-0.9,2.3-2.1,2.4c-1.1,0.1-2.1,0.2-3.2,0.3c-19.9-18.7-39.4-37.7-58.6-56.9c0,0-0.1,0-0.1,0
			c1.5,19.4,3.1,38.8,4.6,58.2c0.1,1.2-0.8,2.3-2.2,2.5c-2.6,0.2-5.2,0.4-7.8,0.6c-1.2,0.1-2.4-0.9-2.5-2.1
			C1386.9,702.6,1384.9,675.8,1382.9,649z"/>
		<path class="st4" d="M1521.4,677.9c-11.1-12-22.1-24.2-33-36.3c-1.1-1.4-0.4-3.5,1.5-3.7c2.9-0.3,5.9-0.7,8.8-1
			c1-0.1,1.6,0.4,2,0.8c8.4,9.2,16.9,18.5,25.5,27.6c6-11,11.9-22.1,17.7-33.2c0.3-0.5,0.9-1.2,1.8-1.3c3-0.4,6-0.8,8.9-1.2
			c1.9-0.3,3.1,1.5,2.4,3.2c-7.6,14.5-15.3,29-23.1,43.4c1.7,12.6,3.3,25.3,5,37.9c0.2,1.2-0.8,2.4-2,2.6c-2.7,0.4-5.4,0.7-8.1,1
			c-1.4,0.2-2.5-0.8-2.6-2C1524.6,703.1,1523,690.5,1521.4,677.9z"/>
	</g>
</g>
</svg>
