<?xml version="1.0" encoding="UTF-8"?>
<svg version="1.1" xmlns="http://www.w3.org/2000/svg" width="512" height="512">
<path d="M0 0 C1.38446823 0.00031723 1.38446823 0.00031723 2.79690552 0.00064087 C17.75872858 0.0347748 31.99695531 1.00589887 46.625 4.375 C47.45322266 4.55691895 48.28144531 4.73883789 49.13476562 4.92626953 C98.75417767 16.02221719 144.98824243 45.83668287 174.625 87.375 C175.04297852 87.95926758 175.46095703 88.54353516 175.89160156 89.14550781 C208.42352153 135.15957419 222.72074548 192.96021281 213.6640625 248.828125 C206.07066147 290.88620703 188.7069522 329.55418155 159.09765625 360.7265625 C157.32705014 362.62304108 155.66620456 364.50904444 154.02734375 366.51171875 C150.88104506 370.26169751 147.35061092 373.21975948 143.625 376.375 C142.25214844 377.59703125 142.25214844 377.59703125 140.8515625 378.84375 C98.46696963 416.26807978 41.59555326 433.48071486 -14.4140625 430.09765625 C-56.98537641 426.99040931 -97.94631757 412.04120865 -131.375 385.375 C-132.28378906 384.65828125 -133.19257813 383.9415625 -134.12890625 383.203125 C-143.93236094 375.33804898 -153.36307532 367.0885724 -161.375 357.375 C-162.52742188 356.03695312 -162.52742188 356.03695312 -163.703125 354.671875 C-189.49791453 324.44607867 -205.46448328 288.39909442 -212.375 249.375 C-212.50632324 248.6428125 -212.63764648 247.910625 -212.77294922 247.15625 C-219.39234633 207.94119614 -212.8779771 165.64765798 -197.375 129.375 C-197.05805176 128.62814941 -196.74110352 127.88129883 -196.41455078 127.11181641 C-189.48121454 111.02029418 -180.3549383 96.02471781 -169.375 82.375 C-168.5809375 81.37726563 -167.786875 80.37953125 -166.96875 79.3515625 C-155.37779003 65.07464825 -142.22166059 52.22162046 -127.375 41.375 C-126.14136719 40.44880859 -126.14136719 40.44880859 -124.8828125 39.50390625 C-98.73938054 20.44648868 -67.30990736 7.39343153 -35.375 2.375 C-34.33069824 2.20129883 -33.28639648 2.02759766 -32.21044922 1.84863281 C-21.45956891 0.21658198 -10.85636209 -0.02301289 0 0 Z M-100.375 96.375 C-104.34409434 101.52409536 -105.49738412 105.17467834 -105.53613281 111.5871582 C-105.54574036 112.86891434 -105.5553479 114.15067047 -105.56524658 115.4712677 C-105.570095 116.8727704 -105.57437372 118.27427518 -105.578125 119.67578125 C-105.58387936 121.11443584 -105.58963706 122.55309043 -105.59539795 123.991745 C-105.60590039 127.00874183 -105.6117478 130.02571207 -105.61523438 133.04272461 C-105.62071343 136.89957317 -105.64473168 140.75606769 -105.67320633 144.61280537 C-105.69187617 147.5854544 -105.69704064 150.55801896 -105.69857025 153.53072166 C-105.70158821 154.95202759 -105.70958773 156.37333233 -105.72275543 157.79458046 C-105.73990275 159.78786806 -105.73607837 161.78130223 -105.73144531 163.7746582 C-105.73509094 164.90700394 -105.73873657 166.03934967 -105.74249268 167.20600891 C-105.17972363 172.05892219 -103.30145358 176.12298509 -99.4375 179.1875 C-94.65568891 182.60307935 -90.62794475 182.52248378 -84.87980652 182.51544189 C-84.12178704 182.51841302 -83.36376756 182.52138414 -82.5827778 182.5244453 C-80.04109525 182.53312147 -77.49945986 182.53463962 -74.95776367 182.53613281 C-73.13604125 182.54076173 -71.31431981 182.54578649 -69.49259949 182.55117798 C-64.54211137 182.56429633 -59.59163681 182.57074576 -54.64113402 182.57518864 C-51.54815663 182.57812008 -48.45518294 182.58222502 -45.36220741 182.58669281 C-35.68461728 182.60036583 -26.00703561 182.61003362 -16.32943648 182.6138947 C-5.15862315 182.61837606 6.01206785 182.6359284 17.18284398 182.6648953 C25.81820928 182.68651033 34.45354015 182.69659888 43.08893222 182.69793582 C48.24623898 182.69898391 53.40343072 182.70489275 58.560709 182.72275543 C63.41245093 182.73923313 68.26399133 182.74139305 73.11575127 182.73261642 C74.89469569 182.73184591 76.67365093 182.73619069 78.45256805 182.74607468 C80.88490333 182.75879476 83.31652491 182.75291736 85.74885559 182.74249268 C86.4494536 182.75054908 87.15005162 182.75860548 87.87187988 182.76690602 C93.36215822 182.71203635 98.13063787 181.52261224 102.3671875 177.875 C105.95911203 173.11879648 106.75050176 170.0744275 106.80200195 164.19458008 C106.81483719 162.91927933 106.82767242 161.64397858 106.84089661 160.33003235 C106.84906621 158.93486928 106.85650952 157.5397018 106.86328125 156.14453125 C106.86735678 155.44015112 106.8714323 154.73577099 106.87563133 154.01004601 C106.89647993 150.2790799 106.91078476 146.5481504 106.92016602 142.81713867 C106.93120585 138.97831518 106.96558023 135.14007527 107.00533772 131.30145741 C107.03158804 128.33730553 107.03986542 125.37329069 107.04344749 122.40903282 C107.0482947 120.99494184 107.05985513 119.58085621 107.07848549 118.16687965 C107.53213542 106.97599711 107.53213542 106.97599711 102.625 97.375 C97.53289554 93.9703533 93.77915854 92.79090339 87.61045837 92.87379456 C86.83283585 92.86826016 86.05521332 92.86272576 85.25402647 92.85702366 C82.66373033 92.84347457 80.07440738 92.85835447 77.48413086 92.87329102 C75.62093193 92.86950577 73.75773581 92.86400404 71.89454651 92.85691833 C66.84501239 92.84297424 61.7958194 92.85412581 56.74630427 92.87062955 C51.45867959 92.88449447 46.17107442 92.8780184 40.88343811 92.87449646 C32.00548819 92.87179572 23.12767358 92.88525909 14.24975586 92.90844727 C3.98806879 92.93506429 -6.27339218 92.93680097 -16.53510195 92.9250589 C-26.411339 92.91427769 -36.28749433 92.92047037 -46.1637249 92.93461418 C-50.36495332 92.94037017 -54.56612186 92.94029435 -58.76735115 92.93554878 C-63.7143767 92.93077445 -68.66115482 92.94089968 -73.60813332 92.96250343 C-75.4229626 92.96806493 -77.2378157 92.96854244 -79.05264664 92.96355057 C-81.53118576 92.95758833 -84.00897078 92.97012043 -86.48744202 92.98731995 C-87.20447031 92.9813099 -87.9214986 92.97529986 -88.66025501 92.96910769 C-93.28710732 93.02743755 -96.45602711 93.91670647 -100.375 96.375 Z M-42.1875 218.0625 C-44.76525916 221.96596387 -45.80294429 224.71128056 -45.375 229.375 C-44.11463228 233.90573362 -42.10082426 237.28524291 -38.125 239.875 C-34.02388976 241.84212782 -30.88136279 241.94723655 -26.375 241.375 C-21.57857942 238.97678971 -18.77321029 236.17142058 -16.375 231.375 C-15.70857606 226.12691147 -16.08719842 222.40531775 -18.97265625 217.91796875 C-22.177345 214.39191845 -26.37245281 212.70875786 -31 211.9375 C-35.73990681 212.81064073 -38.72359546 214.75254678 -42.1875 218.0625 Z M17.8125 218.0625 C15.23474084 221.96596387 14.19705571 224.71128056 14.625 229.375 C15.88536772 233.90573362 17.89917574 237.28524291 21.875 239.875 C25.97611024 241.84212782 29.11863721 241.94723655 33.625 241.375 C38.42142058 238.97678971 41.22678971 236.17142058 43.625 231.375 C44.29142394 226.12691147 43.91280158 222.40531775 41.02734375 217.91796875 C37.822655 214.39191845 33.62754719 212.70875786 29 211.9375 C24.26009319 212.81064073 21.27640454 214.75254678 17.8125 218.0625 Z M77.8125 218.0625 C75.23474084 221.96596387 74.19705571 224.71128056 74.625 229.375 C75.88536772 233.90573362 77.89917574 237.28524291 81.875 239.875 C85.97611024 241.84212782 89.11863721 241.94723655 93.625 241.375 C98.72709922 238.67955136 101.79881037 235.8535689 103.625 230.375 C104.08682241 225.57204689 103.65156484 222.09958111 101.02734375 217.953125 C97.85603826 214.3843021 93.63168521 212.70944753 89 211.9375 C84.26009319 212.81064073 81.27640454 214.75254678 77.8125 218.0625 Z M-6.375 272.375 C-11.50157514 279.16151644 -15.63619305 286.72680946 -19.92602539 294.05957031 C-21.06614827 296.0062291 -22.21350735 297.94849758 -23.36132812 299.890625 C-24.09939925 301.14817883 -24.8370444 302.40598278 -25.57421875 303.6640625 C-26.56168091 305.34556396 -26.56168091 305.34556396 -27.5690918 307.06103516 C-30.81876338 313.02440436 -33.21700336 317.43150653 -31.3828125 324.22265625 C-29.36128727 328.53994463 -25.56531552 331.27984224 -21.375 333.375 C-19.00097499 333.44616382 -16.62499323 333.45909085 -14.25 333.4375 C-12.96867187 333.42847656 -11.68734375 333.41945313 -10.3671875 333.41015625 C-9.37976563 333.39855469 -8.39234375 333.38695312 -7.375 333.375 C-7.67269287 333.84284912 -7.97038574 334.31069824 -8.27709961 334.79272461 C-9.63961837 336.95556683 -10.97594205 339.13352762 -12.3125 341.3125 C-13.01536133 342.41561523 -13.01536133 342.41561523 -13.73242188 343.54101562 C-16.85946469 348.69276242 -18.58854685 353.27495488 -18.375 359.375 C-16.55025555 364.74785867 -13.42697929 367.84901035 -8.375 370.375 C-3.89537071 370.92151477 -0.32850512 370.80501211 3.8125 368.9375 C11.35756156 362.06311058 16.06099359 351.82524005 21.3125 343.125 C22.07859425 341.85926495 22.84486922 340.59363926 23.61132812 339.328125 C25.61875443 336.01214427 27.62347602 332.69454795 29.625 329.375 C30.18034424 328.48973633 30.73568848 327.60447266 31.30786133 326.69238281 C33.12030607 323.50355511 33.4987393 321.03656023 33.625 317.375 C31.90090063 311.49277862 29.42977921 308.85079773 24.625 305.375 C21.62186252 303.87343126 18.83432478 304.28218796 15.5 304.3125 C14.21867187 304.32152344 12.93734375 304.33054687 11.6171875 304.33984375 C10.62976563 304.35144531 9.64234375 304.36304688 8.625 304.375 C9.26308594 303.32441406 9.90117187 302.27382813 10.55859375 301.19140625 C11.39406128 299.77392762 12.22864998 298.35593075 13.0625 296.9375 C13.48337891 296.24978516 13.90425781 295.56207031 14.33789062 294.85351562 C17.22972056 289.87956814 18.92838912 285.20689036 18.625 279.375 C17.1292725 275.0434027 14.61378869 271.69107085 10.625 269.375 C3.89386045 267.13128682 -1.06081566 267.63844439 -6.375 272.375 Z " fill="#000000" transform="translate(255.375,-0.375)"/>
<path d="M0 0 C2.77568259 1.30912563 5.17832273 2.76851459 7.625 4.6171875 C39.55004455 28.40476557 74.71010226 44.73406001 114 52 C115.25538574 52.24339111 115.25538574 52.24339111 116.53613281 52.49169922 C143.16890253 57.46417588 173.43760229 57.23658698 200 52 C201.010625 51.80664062 202.02125 51.61328125 203.0625 51.4140625 C241.98002717 43.76280109 279.14966875 27.24897218 309.6953125 1.75 C312 0 312 0 314 0 C313.38471042 6.15079143 312.49162848 12.14459859 311.28173828 18.20410156 C311.02540115 19.51075775 311.02540115 19.51075775 310.7638855 20.84381104 C310.20349 23.69358198 309.63735134 26.54216899 309.0703125 29.390625 C308.67530882 31.38359499 308.28036139 33.37657612 307.88546753 35.36956787 C307.05946779 39.53243241 306.23013001 43.69461704 305.39892578 47.85644531 C304.33507787 53.18649259 303.28370803 58.51892001 302.23530769 63.85202408 C301.42509426 67.9625602 300.60623605 72.07133929 299.78496933 76.17967987 C299.39350218 78.14542111 299.00520171 80.11179576 298.62015152 82.07880402 C298.0815362 84.82559909 297.53081363 87.56970109 296.97705078 90.31347656 C296.82109436 91.12292725 296.66513794 91.93237793 296.50445557 92.76635742 C295.18808694 99.18142897 293.16054625 103.66636246 287.91532028 107.92357135 C284.07151158 110.08382928 279.8407216 109.69131994 275.53762817 109.64837646 C274.48458964 109.65758755 273.43155111 109.66679863 272.34660232 109.67628884 C268.81814545 109.70091477 265.29071911 109.6897988 261.76220703 109.67871094 C259.23245361 109.68876027 256.70270778 109.70090711 254.17297363 109.71499634 C248.01476351 109.74310398 241.85693366 109.74756626 235.69867553 109.73998317 C230.69218277 109.73415549 225.68577331 109.73735558 220.67928696 109.74695587 C219.60990624 109.74897129 219.60990624 109.74897129 218.51892187 109.75102742 C217.07055091 109.75377069 215.62217997 109.75652317 214.17380904 109.75928476 C200.59443642 109.78388281 187.01522199 109.77628673 173.4358481 109.75871471 C161.01926325 109.74361567 148.60312223 109.76780422 136.18661405 109.81074712 C123.43076101 109.85452792 110.67511603 109.87237787 97.91918838 109.86197114 C90.7603195 109.85656865 83.60180694 109.86127223 76.44299698 109.89293671 C69.71056579 109.92237669 62.97913757 109.91511541 56.24667358 109.88322067 C53.77636564 109.87716215 51.30599521 109.88303412 48.83575058 109.90172958 C45.46161135 109.92536327 42.09036264 109.90580424 38.71633911 109.87542725 C37.2516353 109.90089618 37.2516353 109.90089618 35.7573415 109.92687964 C29.41865924 109.80844248 26.13354262 108.26280206 21.52953708 103.90287614 C18.85362356 100.57380877 18.18456998 97.1465688 17.48828125 93.0078125 C17.30445389 92.08018097 17.12062653 91.15254944 16.93122864 90.19680786 C16.50779046 88.04622143 16.09851072 85.89281891 15.70025635 83.73742676 C14.91251297 79.53306188 14.06716973 75.34250879 13.21240234 71.15136719 C11.33915434 61.93868733 9.51744738 52.71628206 7.70324707 43.49182129 C7.00833034 39.9659207 6.30821429 36.44105988 5.60821056 32.91616631 C4.93209894 29.50754361 4.25953581 26.09822823 3.58803749 22.688694 C3.26823175 21.06735646 2.94727062 19.44624637 2.62511253 17.8253746 C2.17895675 15.57813181 1.7376498 13.32998967 1.29760742 11.08154297 C1.04621506 9.80665009 0.79482269 8.5317572 0.53581238 7.2182312 C0 4 0 4 0 0 Z " fill="#000000" transform="translate(99,403)"/>
<path d="M0 0 C10.89 0 21.78 0 33 0 C33 10.23 33 20.46 33 31 C22.11 31 11.22 31 0 31 C0 20.77 0 10.54 0 0 Z " fill="#000000" transform="translate(179,122)"/>
<path d="M0 0 C10.23 0 20.46 0 31 0 C31 10.23 31 20.46 31 31 C20.77 31 10.54 31 0 31 C0 20.77 0 10.54 0 0 Z " fill="#000000" transform="translate(302,122)"/>
<path d="M0 0 C9.9 0 19.8 0 30 0 C30 10.23 30 20.46 30 31 C20.1 31 10.2 31 0 31 C0 20.77 0 10.54 0 0 Z " fill="#000000" transform="translate(242,122)"/>
</svg>
