<?xml version="1.0" encoding="UTF-8"?>
<svg version="1.1" xmlns="http://www.w3.org/2000/svg" width="512" height="512">
<path d="M0 0 C16.83 0 33.66 0 51 0 C51.66 2.97 52.32 5.94 53 9 C58.3752057 13.34565628 64.34462632 15.51189204 70.875 17.625 C72.2503894 18.0727478 72.2503894 18.0727478 73.65356445 18.52954102 C100.06193542 26.82905409 128.0042616 26.30969084 153.30859375 14.44921875 C158.91430838 11.6103109 158.91430838 11.6103109 163 7 C163.33 4.69 163.66 2.38 164 0 C180.5 0 197 0 214 0 C214 37.62 214 75.24 214 114 C143.38 114 72.76 114 0 114 C0 76.38 0 38.76 0 0 Z " fill="#000000" transform="translate(149,314)"/>
<path d="M0 0 C0.93199219 0.45246094 1.86398437 0.90492187 2.82421875 1.37109375 C25.18737143 12.88016396 40.56882535 32.65073401 49 56 C56.61853383 80.62018838 54.24879568 106.9249035 43 130 C31.58419759 151.26708972 12.89466287 167.99031915 -10 176 C-10.99 176 -11.98 176 -13 176 C-13 183.59 -13 191.18 -13 199 C-32.47 199 -51.94 199 -72 199 C-72 191.41 -72 183.82 -72 176 C-74.97 175.01 -77.94 174.02 -81 173 C-83.52340016 171.84540075 -85.94081203 170.6865506 -88.375 169.375 C-89.33708374 168.85776367 -89.33708374 168.85776367 -90.31860352 168.33007812 C-96.4789733 164.90858894 -101.79265746 160.74465459 -107 156 C-108.05767578 155.06414062 -108.05767578 155.06414062 -109.13671875 154.109375 C-125.80902968 138.51798011 -136.38946033 114.66761758 -137.23828125 91.91796875 C-137.56831409 74.80554186 -135.61150262 59.51148785 -128 44 C-127.54753906 43.06800781 -127.09507812 42.13601562 -126.62890625 41.17578125 C-115.18336832 18.93607746 -94.91618133 2.59644222 -71.3203125 -5.21875 C-47.77930029 -12.18649146 -22.1505097 -10.86927729 0 0 Z M-100.1875 37.5625 C-113.44153838 54.18799489 -119.01172393 73.89935099 -117 95 C-115.02836087 110.01663341 -108.15444885 124.78261329 -98 136 C-97.14728516 136.99 -97.14728516 136.99 -96.27734375 138 C-82.88544952 152.55764298 -64.15043674 159.54266764 -44.83984375 161.28515625 C-23.78456315 161.93693479 -4.39249359 153.39785746 10.79003906 139.25268555 C24.2153894 126.2526623 32.11663881 108.10207886 33.203125 89.52734375 C33.47861973 68.42903902 26.32472275 48.67455239 12 33 C-5.11078876 16.94509852 -24.23914765 10.39819142 -47.34375 10.73046875 C-68.02327875 11.42826535 -86.66396881 22.39726548 -100.1875 37.5625 Z " fill="#000000" transform="translate(298,78)"/>
<path d="M0 0 C1.16789062 -0.02900391 2.33578125 -0.05800781 3.5390625 -0.08789062 C10.32994058 -0.13793678 14.80684774 0.09329678 20.25 4.3125 C22.46785128 7.63927693 22.50513286 8.69018575 22.52415466 12.56819153 C22.53911736 14.20213112 22.53911736 14.20213112 22.55438232 15.86907959 C22.555047 17.0644635 22.55571167 18.25984741 22.55639648 19.49145508 C22.56472 20.75021957 22.57304352 22.00898407 22.58161926 23.30589294 C22.60357471 26.76056232 22.61236473 30.21514317 22.61744571 33.66987443 C22.6210886 35.8289808 22.62732836 37.98806396 22.6344471 40.14716148 C22.65894698 47.68185825 22.67199427 55.21648614 22.67553711 62.7512207 C22.67917098 69.77059044 22.70905383 76.78952254 22.75094169 83.80875856 C22.78565664 89.83775288 22.80108577 95.86660229 22.80178314 101.89569587 C22.80257568 105.49542872 22.81130234 109.09471602 22.83978081 112.69434547 C22.87085237 116.71166372 22.86189631 120.72794248 22.84936523 124.74536133 C22.86419952 125.93467255 22.87903381 127.12398376 22.89431763 128.34933472 C22.81435845 137.33936099 22.81435845 137.33936099 19.90003967 141.03544617 C14.66551729 145.53322383 8.55722781 144.60325643 1.96313477 144.66259766 C-0.04513562 144.68728653 -2.05293046 144.74389715 -4.06054688 144.80078125 C-14.93825705 144.89971949 -14.93825705 144.89971949 -18.54296875 142.2265625 C-23.50399427 135.67625269 -23.03817231 128.49032334 -23.00878906 120.59741211 C-23.0122937 119.43559921 -23.01579834 118.27378632 -23.01940918 117.07676697 C-23.0281905 113.24773126 -23.0223903 109.41888124 -23.015625 105.58984375 C-23.01697259 102.92379019 -23.01891098 100.25774222 -23.02142334 97.59169006 C-23.02505515 92.00926715 -23.02028402 86.42689727 -23.01074219 80.84448242 C-22.99985379 74.40003016 -23.00338913 67.95570442 -23.014395 61.5112552 C-23.02348392 55.9662569 -23.02474547 50.42129659 -23.01951766 44.87629324 C-23.01640746 41.56964897 -23.01675349 38.26307687 -23.02259064 34.95643425 C-23.02767032 31.27026693 -23.01992522 27.58434259 -23.00878906 23.89819336 C-23.01283752 22.80867371 -23.01688599 21.71915405 -23.02105713 20.59661865 C-22.9836904 13.91901725 -22.86168604 8.74906082 -18.3125 3.5 C-13.0328525 -1.00701616 -6.60948557 0.05399907 0 0 Z " fill="#000000" transform="translate(390.75,298.6875)"/>
<path d="M0 0 C1.16789062 -0.02900391 2.33578125 -0.05800781 3.5390625 -0.08789062 C10.30119267 -0.13772492 14.8731758 0.02455779 20.25 4.3125 C22.26514465 7.45580394 22.50586538 9.95444275 22.52415466 13.65048218 C22.53911736 15.27386253 22.53911736 15.27386253 22.55438232 16.93003845 C22.555047 18.11247635 22.55571167 19.29491425 22.55639648 20.51318359 C22.56472 21.76234055 22.57304352 23.0114975 22.58161926 24.29850769 C22.60159006 27.7221868 22.61236047 31.1456227 22.61744571 34.56933928 C22.62109134 36.7095225 22.62733245 38.8496824 22.6344471 40.98985672 C22.6589345 48.4597196 22.67199207 55.9295131 22.67553711 63.39941406 C22.67917246 70.35689013 22.70906911 77.31392509 22.75094169 84.27126634 C22.78565621 90.24932595 22.80108574 96.22723944 22.80178314 102.20539916 C22.80257554 105.77381962 22.81129611 109.34179055 22.83978081 112.91010666 C22.87085113 116.8912533 22.86189614 120.87176763 22.84936523 124.85302734 C22.86419952 126.03141678 22.87903381 127.20980621 22.89431763 128.42390442 C22.81437514 137.33132851 22.81437514 137.33132851 19.83753967 141.02871704 C14.73788377 145.52971363 9.54923443 144.53374724 2.98364258 144.55273438 C0.95547061 144.56241423 -1.07167642 144.59342532 -3.09960938 144.625 C-5.02450195 144.63273437 -5.02450195 144.63273437 -6.98828125 144.640625 C-8.16430908 144.6499707 -9.34033691 144.65931641 -10.55200195 144.66894531 C-14.94186558 144.17965599 -17.56287898 142.62681256 -20.5 139.375 C-22.68220298 135.77436509 -22.87581176 132.43096184 -22.88371277 128.27822876 C-22.88797775 127.26328842 -22.89224274 126.24834808 -22.89663696 125.20265198 C-22.89618378 124.09501999 -22.89573059 122.987388 -22.89526367 121.84619141 C-22.89862228 120.67506302 -22.9019809 119.50393463 -22.90544128 118.2973175 C-22.91331195 115.08856604 -22.91661877 111.87985342 -22.91725707 108.67109346 C-22.91796844 106.66492594 -22.92010442 104.65876518 -22.92275429 102.65259933 C-22.93200285 95.64958008 -22.9360898 88.64657985 -22.93530273 81.64355469 C-22.93470212 75.12248862 -22.94525198 68.60150532 -22.9610464 62.08046019 C-22.97413539 56.47608191 -22.97948606 50.87173064 -22.97884732 45.2673372 C-22.97859273 41.92262115 -22.98234561 38.57803722 -22.99202538 35.23332596 C-23.00181468 31.50134651 -22.99895125 27.76958048 -22.99291992 24.03759766 C-22.99853943 22.93401413 -23.00415894 21.8304306 -23.00994873 20.69340515 C-22.98235131 13.97855125 -22.88817408 8.77962393 -18.3125 3.5 C-13.0328525 -1.00701616 -6.60948557 0.05399907 0 0 Z " fill="#000000" transform="translate(120.75,298.6875)"/>
<path d="M0 0 C13.2 0 26.4 0 40 0 C42 2 42 2 42.24888897 3.97683048 C42.2483442 4.79224025 42.24779943 5.60765001 42.24723816 6.44776917 C42.25143265 7.38304443 42.25562714 8.3183197 42.25994873 9.28193665 C42.25432922 10.31110703 42.24870972 11.3402774 42.24291992 12.40063477 C42.24481827 13.48196686 42.24671661 14.56329895 42.24867249 15.67739868 C42.2523889 19.26547405 42.24166434 22.85334875 42.23046875 26.44140625 C42.22927741 28.92479936 42.22882369 31.40819292 42.2290802 33.8915863 C42.22731296 39.76941084 42.21591613 45.64716094 42.20057994 51.52496427 C42.1856984 57.55121448 42.18507216 63.57741832 42.18575573 69.60368443 C42.18548447 74.73272935 42.18001048 79.86175763 42.17275429 84.99079704 C42.16956107 87.46008109 42.1675987 89.92936703 42.16686058 92.39865303 C42.16470441 95.84205499 42.15597617 99.28537522 42.14526367 102.72875977 C42.14571686 103.75995438 42.14617004 104.79114899 42.14663696 105.85359192 C42.14237198 106.78604736 42.13810699 107.71850281 42.13371277 108.67921448 C42.13203692 109.49424722 42.13036108 110.30927996 42.12863445 111.14901066 C42 113 42 113 41 114 C27.47 114 13.94 114 0 114 C0 76.38 0 38.76 0 0 Z " fill="#000000" transform="translate(419,314)"/>
<path d="M0 0 C13.2 0 26.4 0 40 0 C40 37.62 40 75.24 40 114 C26.47 114 12.94 114 -1 114 C-2.57336236 112.42663764 -2.12921875 110.86484258 -2.13371277 108.67921448 C-2.13797775 107.74675903 -2.14224274 106.81430359 -2.14663696 105.85359192 C-2.14618378 104.82239731 -2.14573059 103.7912027 -2.14526367 102.72875977 C-2.14862228 101.64917999 -2.1519809 100.56960022 -2.15544128 99.45730591 C-2.16498382 95.86866116 -2.16689603 92.28006291 -2.16796875 88.69140625 C-2.17117896 86.20897909 -2.17454285 83.72655212 -2.17805481 81.24412537 C-2.18405431 76.03278159 -2.18589386 70.82145441 -2.18530273 65.61010742 C-2.18476821 60.24679604 -2.1918168 54.88355657 -2.20581055 49.52026367 C-2.22242675 43.06116738 -2.22936017 36.60213586 -2.22869301 30.14301872 C-2.22987718 27.67455619 -2.23432322 25.20609308 -2.24202538 22.73764229 C-2.25177006 19.2918966 -2.24896915 15.84638382 -2.24291992 12.40063477 C-2.24853943 11.37146439 -2.25415894 10.34229401 -2.25994873 9.28193665 C-2.25575424 8.34666138 -2.25155975 7.41138611 -2.24723816 6.44776917 C-2.24778293 5.6323594 -2.24832769 4.81694963 -2.24888897 3.97683048 C-2 2 -2 2 0 0 Z " fill="#000000" transform="translate(53,314)"/>
<path d="M0 0 C33.33 0 66.66 0 101 0 C102.51224136 3.02448271 102.2042586 6.17216136 102.23828125 9.4921875 C102.246353 10.23453644 102.25442474 10.97688538 102.26274109 11.74172974 C102.27657717 13.31363593 102.28730146 14.88557212 102.29516602 16.45751953 C102.31238512 18.8589783 102.3562728 21.25906218 102.40039062 23.66015625 C102.41051729 25.18748988 102.41903348 26.71483521 102.42578125 28.2421875 C102.44328934 28.95897675 102.46079742 29.67576599 102.47883606 30.41427612 C102.4641059 33.80758837 102.26480261 35.65323637 100.17871094 38.38500977 C97.30535503 40.5149122 94.25882576 41.81229575 90.9375 43.0625 C89.93178955 43.44873535 89.93178955 43.44873535 88.90576172 43.84277344 C68.35261063 51.59626912 47.73221078 52.70989402 26.375 47.875 C25.17858887 47.6119104 25.17858887 47.6119104 23.95800781 47.34350586 C15.33238497 45.21304968 8.45066951 41.69716791 0 38 C0 25.46 0 12.92 0 0 Z " fill="#000000" transform="translate(206,283)"/>
<path d="M0 0 C2 3 2 3 1.82958984 5.7746582 C0.89499819 9.40823392 -0.49556526 12.30177525 -2.2734375 15.60546875 C-2.59784821 16.2113533 -2.92225891 16.81723785 -3.25650024 17.44148254 C-3.93999481 18.71345356 -4.62767996 19.98318081 -5.31933594 21.25073242 C-6.37469706 23.18694421 -7.41479846 25.13078172 -8.453125 27.07617188 C-14.28486208 37.89018504 -14.28486208 37.89018504 -17 40 C-20.4245445 40.49941274 -22.192962 40.56248103 -25.0625 38.5625 C-26.59313494 34.3787645 -24.64144852 30.99542054 -23 27 C-21.12919449 23.1754943 -19.08266197 19.46257134 -17 15.75 C-16.46632813 14.78320312 -15.93265625 13.81640625 -15.3828125 12.8203125 C-13.93500154 10.20560913 -12.48106354 7.59600983 -11 5 C-10.23236328 3.6392334 -10.23236328 3.6392334 -9.44921875 2.25097656 C-6.80651906 -1.85375578 -4.43091645 -1.10772911 0 0 Z " fill="#000000" transform="translate(276,129)"/>
<path d="M0 0 C3.66365373 2.51444159 5.76168752 4.78460637 6.625 9.1875 C6 12 6 12 4.3125 13.9375 C2 15 2 15 -0.4375 15 C-3.94486927 13.63127053 -5.69377259 11.96514953 -8 9 C-8.52651051 5.70930929 -8.60767534 3.95948739 -6.8125 1.125 C-4.20168562 -0.49550548 -3.03336841 -0.63489106 0 0 Z " fill="#000000" transform="translate(213,112)"/>
<path d="M0 0 C2.45686789 1.68619942 4.32942686 3.5304571 6 6 C6.5 9.25 6.5 9.25 6 12 C4 14 4 14 0.6875 14.4375 C-3 14 -3 14 -5.9375 11.875 C-8 9 -8 9 -8.5 5.875 C-8 3 -8 3 -6.8125 1.125 C-4.20168562 -0.49550548 -3.03336841 -0.63489106 0 0 Z " fill="#000000" transform="translate(302,201)"/>
<path d="M0 0 C1.5778125 0.495 1.5778125 0.495 3.1875 1 C4.63180855 3.88861709 4.56438506 5.79647701 4.1875 9 C2.125 11.875 2.125 11.875 -0.8125 14 C-4.5 14.5 -4.5 14.5 -7.8125 14 C-10.01186153 10.70095771 -10.52427696 9.82580113 -9.8125 6 C-7.0969425 1.81552883 -5.084026 0 0 0 Z " fill="#000000" transform="translate(214.8125,201)"/>
<path d="M0 0 C0.7734375 0.00386719 1.546875 0.00773438 2.34375 0.01171875 C4.5 0.3125 4.5 0.3125 7.5 2.3125 C8.375 4.6875 8.375 4.6875 8.5 7.3125 C7.35546875 9.453125 7.35546875 9.453125 5.5 11.3125 C2.87109375 11.7734375 2.87109375 11.7734375 -0.0625 11.6875 C-1.03316406 11.67460937 -2.00382813 11.66171875 -3.00390625 11.6484375 C-5.5 11.3125 -5.5 11.3125 -7.5 9.3125 C-8.05813135 4.06606535 -8.05813135 4.06606535 -6.26171875 1.640625 C-4.02980362 -0.04197177 -2.76949033 -0.06000562 0 0 Z " fill="#000000" transform="translate(193.5,157.6875)"/>
<path d="M0 0 C2.1875 1 2.1875 1 4.1875 3 C4.625 5.8125 4.625 5.8125 4.1875 9 C2.0536576 11.667303 0.24859947 13.46945026 -2.8125 15 C-5.95227605 15 -7.45903683 14.02659328 -9.8125 12 C-10.5625 9.1875 -10.5625 9.1875 -9.8125 6 C-7.08659103 2.58312246 -4.49059089 0 0 0 Z " fill="#000000" transform="translate(303.8125,112)"/>
<path d="M0 0 C1.670625 0.4021875 1.670625 0.4021875 3.375 0.8125 C4.61387548 3.29025095 4.54241669 5.04903707 4.5625 7.8125 C4.57667969 8.699375 4.59085937 9.58625 4.60546875 10.5 C4.375 12.8125 4.375 12.8125 2.375 14.8125 C-1.125 15.0625 -1.125 15.0625 -4.625 14.8125 C-7.13512963 12.30237037 -6.92221609 11.34444763 -6.9375 7.875 C-6.95425781 6.99972656 -6.97101563 6.12445313 -6.98828125 5.22265625 C-6.625 2.8125 -6.625 2.8125 -5.33203125 0.984375 C-3.625 -0.1875 -3.625 -0.1875 0 0 Z " fill="#000000" transform="translate(257.625,219.1875)"/>
<path d="M0 0 C0.7734375 -0.01675781 1.546875 -0.03351563 2.34375 -0.05078125 C5.02554729 0.40104329 5.89548563 1.14615252 7.5 3.3125 C7.8125 6.375 7.8125 6.375 7.5 9.3125 C5.5 11.3125 5.5 11.3125 2.96875 11.578125 C1.9890625 11.57296875 1.009375 11.5678125 0 11.5625 C-0.9796875 11.56765625 -1.959375 11.5728125 -2.96875 11.578125 C-5.5 11.3125 -5.5 11.3125 -7.5 9.3125 C-7.8125 5.8125 -7.8125 5.8125 -7.5 2.3125 C-4.40219052 0.24729368 -3.5459519 0.01772976 0 0 Z " fill="#000000" transform="translate(319.5,157.6875)"/>
<path d="M0 0 C2.375 0.8125 2.375 0.8125 4.375 2.8125 C4.67578125 5.08984375 4.67578125 5.08984375 4.6875 7.75 C4.70425781 8.62527344 4.72101563 9.50054687 4.73828125 10.40234375 C4.375 12.8125 4.375 12.8125 3.046875 14.640625 C1.375 15.8125 1.375 15.8125 -1.6875 15.625 C-4.625 14.8125 -4.625 14.8125 -6.625 12.8125 C-6.9609375 10.53515625 -6.9609375 10.53515625 -7 7.875 C-7.02835938 6.99972656 -7.05671875 6.12445313 -7.0859375 5.22265625 C-6.625 2.8125 -6.625 2.8125 -4.765625 0.984375 C-2.625 -0.1875 -2.625 -0.1875 0 0 Z " fill="#000000" transform="translate(257.625,93.1875)"/>
</svg>
